<svg xmlns="http://www.w3.org/2000/svg" fill="none" viewBox="0 0 24 24"><path fill="url(#a)" d="M4 4a2 2 0 0 1 2-2h10a4 4 0 0 1 4 4v14a2 2 0 0 1-2 2H8a4 4 0 0 1-4-4V4z"/><path fill="url(#b)" d="M5 4a1 1 0 0 1 1-1h10a3 3 0 0 1 3 3v14a1 1 0 0 1-1 1H8a3 3 0 0 1-3-3V4z"/><path fill="url(#c)" d="M5 4a1 1 0 0 1 1-1h10a3 3 0 0 1 3 3v14a1 1 0 0 1-1 1H8a3 3 0 0 1-3-3V4z"/><defs><linearGradient id="a" x1="9.167" x2="12.5" y1="2" y2="22" gradientUnits="userSpaceOnUse"><stop stop-color="#BBB"/><stop offset="1" stop-color="#888"/></linearGradient><linearGradient id="b" x1="8.889" x2="11.787" y1="3" y2="21.034" gradientUnits="userSpaceOnUse"><stop stop-color="#fff"/><stop offset="1" stop-color="#EBEBEB"/></linearGradient><radialGradient id="c" cx="0" cy="0" r="1" gradientTransform="matrix(7.38889 14.25 -11.0833 5.34375 9.472 7.688)" gradientUnits="userSpaceOnUse"><stop offset=".177" stop-color="#fff"/><stop offset="1" stop-color="#EFEFEF"/></radialGradient></defs></svg>