<svg xmlns="http://www.w3.org/2000/svg" fill="none" viewBox="0 0 24 24"><path fill="url(#a)" d="M8 2a2 2 0 0 0-2 2 2 2 0 0 0-2 2v10a6 6 0 0 0 6 6h6a2 2 0 0 0 2-2 2 2 0 0 0 2-2V6a4 4 0 0 0-4-4H8z"/><path fill="url(#b)" d="M8 3a1 1 0 0 0-1 1v12a3 3 0 0 0 3 3h8a1 1 0 0 0 1-1V6a3 3 0 0 0-3-3H8z"/><path fill="url(#c)" d="M8 3a1 1 0 0 0-1 1v12a3 3 0 0 0 3 3h8a1 1 0 0 0 1-1V6a3 3 0 0 0-3-3H8z"/><path fill="url(#d)" d="M5 6a1 1 0 0 1 1-1v11a4 4 0 0 0 4 4h7a1 1 0 0 1-1 1h-6a5 5 0 0 1-5-5V6z"/><path fill="url(#e)" d="M5 6a1 1 0 0 1 1-1v11a4 4 0 0 0 4 4h7a1 1 0 0 1-1 1h-6a5 5 0 0 1-5-5V6z"/><rect width="10" height="10" x="1" y="13" fill="url(#f)" rx="2"/><rect width="10" height="10" x="1" y="13" fill="url(#g)" fill-opacity=".8" rx="2"/><path fill="#fff" d="M8.693 21H7.332l-2.468-3.703a12.19 12.19 0 0 1-.175-.289 2.648 2.648 0 0 1-.109-.209h-.016c.005.106.01.24.012.402.003.162.004.351.004.569V21H3.307v-6H4.76l2.375 3.586c.05.08.1.163.147.247.05.08.096.161.137.242h.017a5.673 5.673 0 0 1-.013-.31c-.002-.139-.004-.31-.004-.514V15h1.274v6z"/><path fill="url(#h)" d="M17 15.09a.91.91 0 0 1-.91.91L12 15.999V15a3 3 0 0 0-2.37-2.933 1.81 1.81 0 0 1 1.188-.442H17v3.466z"/><path fill="url(#i)" d="M13.375 8.324 17 8.188v3.465a.91.91 0 0 1-.91.91h-2.715v-4.24z"/><path fill="url(#j)" d="M16.152 6c.537 0 .848.436.848.973v1.492a.98.98 0 0 1-.98.973h-.422a.973.973 0 0 0-.973.972v1.18a.973.973 0 0 1-.973.973h-2.908A2.983 2.983 0 0 0 9 12l.001-4.281c0-.95.77-1.719 1.719-1.719h5.432z"/><path fill="url(#k)" d="M16.152 6c.537 0 .848.436.848.973v1.492a.98.98 0 0 1-.98.973h-.422a.973.973 0 0 0-.973.972v1.18a.973.973 0 0 1-.973.973h-2.908A2.983 2.983 0 0 0 9 12l.001-4.281c0-.95.77-1.719 1.719-1.719h5.432z"/><defs><linearGradient id="a" x1="9.167" x2="12.5" y1="2" y2="22" gradientUnits="userSpaceOnUse"><stop stop-color="#BBB"/><stop offset="1" stop-color="#888"/></linearGradient><linearGradient id="b" x1="8.889" x2="11.787" y1="3" y2="21.034" gradientUnits="userSpaceOnUse"><stop stop-color="#fff"/><stop offset="1" stop-color="#EBEBEB"/></linearGradient><radialGradient id="c" cx="0" cy="0" r="1" gradientTransform="matrix(7.38889 14.25 -11.0833 5.34375 9.472 7.688)" gradientUnits="userSpaceOnUse"><stop offset=".177" stop-color="#fff"/><stop offset="1" stop-color="#EFEFEF"/></radialGradient><linearGradient id="d" x1="8.889" x2="11.787" y1="3" y2="21.034" gradientUnits="userSpaceOnUse"><stop stop-color="#fff"/><stop offset="1" stop-color="#EBEBEB"/></linearGradient><radialGradient id="e" cx="0" cy="0" r="1" gradientTransform="matrix(7.38889 14.25 -11.0833 5.34375 9.472 7.688)" gradientUnits="userSpaceOnUse"><stop offset=".177" stop-color="#fff"/><stop offset="1" stop-color="#EFEFEF"/></radialGradient><radialGradient id="f" cx="0" cy="0" r="1" gradientTransform="rotate(45 -15.192 7.707) scale(14.1421)" gradientUnits="userSpaceOnUse"><stop offset=".072" stop-color="#AC13EB"/><stop offset=".879" stop-color="#580087"/></radialGradient><radialGradient id="g" cx="0" cy="0" r="1" gradientTransform="matrix(0 7 -8.0625 0 6 19)" gradientUnits="userSpaceOnUse"><stop offset=".585" stop-color="#841FB0" stop-opacity="0"/><stop offset=".969" stop-color="#D373FC"/></radialGradient><radialGradient id="h" cx="0" cy="0" r="1" gradientTransform="matrix(12.8844 0 0 5.84736 16.888 16)" gradientUnits="userSpaceOnUse"><stop offset=".159" stop-color="#A931D8"/><stop offset=".566" stop-color="#6E1996"/></radialGradient><linearGradient id="i" x1="18.808" x2="14.144" y1="10.581" y2="8.271" gradientUnits="userSpaceOnUse"><stop offset=".217" stop-color="#CA59F7"/><stop offset=".888" stop-color="#691A90"/></linearGradient><linearGradient id="j" x1="17.484" x2="9.002" y1="8.143" y2="8.143" gradientUnits="userSpaceOnUse"><stop offset=".807" stop-color="#DE66FF"/><stop offset="1" stop-color="#FCB1FF"/></linearGradient><radialGradient id="k" cx="0" cy="0" r="1" gradientTransform="matrix(-4.08436 6.79786 -11.9839 -6.8932 17.71 5.502)" gradientUnits="userSpaceOnUse"><stop stop-color="#FFC7A3"/><stop offset=".831" stop-color="#DE67FD" stop-opacity="0"/></radialGradient></defs></svg>